<?xml version="1.0" standalone="no"?>
<svg width="567.429" height="392.426" viewBox="0 0 567.429 392.426" xmlns="http://www.w3.org/2000/svg" shape-rendering="crispEdges">
<title>
/Users/yumiao/Documents/Works/github/energyModel_Fit/Miao/output/gamma/Simul_gammaNL_3param.svg
</title>
<desc>
Creator: ROOT Version 6.18/04
CreationDate: Thu Apr 30 09:24:43 2020</desc>
<defs>
</defs>
<rect x="0.5" y="0" width="566.929" height="391.926" fill="white"/>
<rect x="57.1929" y="39.1926" width="453.543" height="313.541" fill="white"/>
<rect x="57.1929" y="39.1926" width="453.543" height="313.541" fill="none" stroke="black"/>
<rect x="57.1929" y="39.1926" width="453.543" height="313.541" fill="white"/>
<rect x="57.1929" y="39.1926" width="453.543" height="313.541" fill="none" stroke="black"/>
<path d="M57.1929,352.734h 453.543" fill="none" stroke="black"/>
<path d="M97.7887,39.1926v 313.541" fill="none" stroke="black" stroke-dasharray=" 1, 2"/>
<path d="M156.902,39.1926v 313.541" fill="none" stroke="black" stroke-dasharray=" 1, 2"/>
<path d="M216.014,39.1926v 313.541" fill="none" stroke="black" stroke-dasharray=" 1, 2"/>
<path d="M275.127,39.1926v 313.541" fill="none" stroke="black" stroke-dasharray=" 1, 2"/>
<path d="M334.24,39.1926v 313.541" fill="none" stroke="black" stroke-dasharray=" 1, 2"/>
<path d="M393.353,39.1926v 313.541" fill="none" stroke="black" stroke-dasharray=" 1, 2"/>
<path d="M452.466,39.1926v 313.541" fill="none" stroke="black" stroke-dasharray=" 1, 2"/>
<path d="M97.7887,39.1926v 313.541" fill="none" stroke="black" stroke-dasharray=" 1, 2"/>
<path d="M452.466,39.1926v 313.541" fill="none" stroke="black" stroke-dasharray=" 1, 2"/>
<path d="M57.1929,352.734v -313.541" fill="none" stroke="black"/>
<path d="M510.736,307.511h -453.543" fill="none" stroke="black" stroke-dasharray=" 1, 2"/>
<path d="M510.736,261.715h -453.543" fill="none" stroke="black" stroke-dasharray=" 1, 2"/>
<path d="M510.736,215.919h -453.543" fill="none" stroke="black" stroke-dasharray=" 1, 2"/>
<path d="M510.736,170.122h -453.543" fill="none" stroke="black" stroke-dasharray=" 1, 2"/>
<path d="M510.736,124.326h -453.543" fill="none" stroke="black" stroke-dasharray=" 1, 2"/>
<path d="M510.736,78.5301h -453.543" fill="none" stroke="black" stroke-dasharray=" 1, 2"/>
<path d="M510.736,307.511h -453.543" fill="none" stroke="black" stroke-dasharray=" 1, 2"/>
<path d="M510.736,78.5301h -453.543" fill="none" stroke="black" stroke-dasharray=" 1, 2"/>
<path d="M57.1929,352.734h 453.543" fill="none" stroke="black"/>
<path d="M97.7887,343.327v 9.40623" fill="none" stroke="black"/>
<path d="M109.611,348.031v 4.70312" fill="none" stroke="black"/>
<path d="M121.434,348.031v 4.70312" fill="none" stroke="black"/>
<path d="M133.256,348.031v 4.70312" fill="none" stroke="black"/>
<path d="M145.079,348.031v 4.70312" fill="none" stroke="black"/>
<path d="M156.902,343.327v 9.40623" fill="none" stroke="black"/>
<path d="M168.724,348.031v 4.70312" fill="none" stroke="black"/>
<path d="M180.547,348.031v 4.70312" fill="none" stroke="black"/>
<path d="M192.369,348.031v 4.70312" fill="none" stroke="black"/>
<path d="M204.192,348.031v 4.70312" fill="none" stroke="black"/>
<path d="M216.014,343.327v 9.40623" fill="none" stroke="black"/>
<path d="M227.837,348.031v 4.70312" fill="none" stroke="black"/>
<path d="M239.659,348.031v 4.70312" fill="none" stroke="black"/>
<path d="M251.482,348.031v 4.70312" fill="none" stroke="black"/>
<path d="M263.305,348.031v 4.70312" fill="none" stroke="black"/>
<path d="M275.127,343.327v 9.40623" fill="none" stroke="black"/>
<path d="M286.95,348.031v 4.70312" fill="none" stroke="black"/>
<path d="M298.772,348.031v 4.70312" fill="none" stroke="black"/>
<path d="M310.595,348.031v 4.70312" fill="none" stroke="black"/>
<path d="M322.417,348.031v 4.70312" fill="none" stroke="black"/>
<path d="M334.24,343.327v 9.40623" fill="none" stroke="black"/>
<path d="M346.063,348.031v 4.70312" fill="none" stroke="black"/>
<path d="M357.885,348.031v 4.70312" fill="none" stroke="black"/>
<path d="M369.708,348.031v 4.70312" fill="none" stroke="black"/>
<path d="M381.53,348.031v 4.70312" fill="none" stroke="black"/>
<path d="M393.353,343.327v 9.40623" fill="none" stroke="black"/>
<path d="M405.175,348.031v 4.70312" fill="none" stroke="black"/>
<path d="M416.998,348.031v 4.70312" fill="none" stroke="black"/>
<path d="M428.821,348.031v 4.70312" fill="none" stroke="black"/>
<path d="M440.643,348.031v 4.70312" fill="none" stroke="black"/>
<path d="M452.466,343.327v 9.40623" fill="none" stroke="black"/>
<path d="M97.7887,343.327v 9.40623" fill="none" stroke="black"/>
<path d="M85.9661,348.031v 4.70312" fill="none" stroke="black"/>
<path d="M74.1435,348.031v 4.70312" fill="none" stroke="black"/>
<path d="M62.321,348.031v 4.70312" fill="none" stroke="black"/>
<path d="M452.466,343.327v 9.40623" fill="none" stroke="black"/>
<path d="M464.288,348.031v 4.70312" fill="none" stroke="black"/>
<path d="M476.111,348.031v 4.70312" fill="none" stroke="black"/>
<path d="M487.933,348.031v 4.70312" fill="none" stroke="black"/>
<path d="M499.756,348.031v 4.70312" fill="none" stroke="black"/>
<text xml:space="preserve" x="94.9882" y="365.31" fill="black" font-size="13.0848" font-family="Helvetica">1</text>
<text xml:space="preserve" x="153.544" y="365.31" fill="black" font-size="13.0848" font-family="Helvetica">2</text>
<text xml:space="preserve" x="212.1" y="365.31" fill="black" font-size="13.0848" font-family="Helvetica">3</text>
<text xml:space="preserve" x="271.322" y="365.31" fill="black" font-size="13.0848" font-family="Helvetica">4</text>
<text xml:space="preserve" x="330.543" y="365.31" fill="black" font-size="13.0848" font-family="Helvetica">5</text>
<text xml:space="preserve" x="389.765" y="365.31" fill="black" font-size="13.0848" font-family="Helvetica">6</text>
<text xml:space="preserve" x="448.986" y="365.31" fill="black" font-size="13.0848" font-family="Helvetica">7</text>
<text xml:space="preserve" x="446.99" y="379.284" fill="black" font-size="13.0848" font-family="Helvetica"> Etrue/MeV</text>
<path d="M57.1929,352.734v -313.541" fill="none" stroke="black"/>
<path d="M70.7992,307.511h -13.6063" fill="none" stroke="black"/>
<path d="M63.9961,296.062h -6.80315" fill="none" stroke="black"/>
<path d="M63.9961,284.613h -6.80315" fill="none" stroke="black"/>
<path d="M63.9961,273.164h -6.80315" fill="none" stroke="black"/>
<path d="M70.7992,261.715h -13.6063" fill="none" stroke="black"/>
<path d="M63.9961,250.266h -6.80315" fill="none" stroke="black"/>
<path d="M63.9961,238.817h -6.80315" fill="none" stroke="black"/>
<path d="M63.9961,227.368h -6.80315" fill="none" stroke="black"/>
<path d="M70.7992,215.919h -13.6063" fill="none" stroke="black"/>
<path d="M63.9961,204.469h -6.80315" fill="none" stroke="black"/>
<path d="M63.9961,193.02h -6.80315" fill="none" stroke="black"/>
<path d="M63.9961,181.571h -6.80315" fill="none" stroke="black"/>
<path d="M70.7992,170.122h -13.6063" fill="none" stroke="black"/>
<path d="M63.9961,158.673h -6.80315" fill="none" stroke="black"/>
<path d="M63.9961,147.224h -6.80315" fill="none" stroke="black"/>
<path d="M63.9961,135.775h -6.80315" fill="none" stroke="black"/>
<path d="M70.7992,124.326h -13.6063" fill="none" stroke="black"/>
<path d="M63.9961,112.877h -6.80315" fill="none" stroke="black"/>
<path d="M63.9961,101.428h -6.80315" fill="none" stroke="black"/>
<path d="M63.9961,89.9791h -6.80315" fill="none" stroke="black"/>
<path d="M70.7992,78.5301h -13.6063" fill="none" stroke="black"/>
<path d="M70.7992,307.511h -13.6063" fill="none" stroke="black"/>
<path d="M63.9961,318.96h -6.80315" fill="none" stroke="black"/>
<path d="M63.9961,330.409h -6.80315" fill="none" stroke="black"/>
<path d="M63.9961,341.858h -6.80315" fill="none" stroke="black"/>
<path d="M70.7992,78.5301h -13.6063" fill="none" stroke="black"/>
<path d="M63.9961,67.081h -6.80315" fill="none" stroke="black"/>
<path d="M63.9961,55.632h -6.80315" fill="none" stroke="black"/>
<path d="M63.9961,44.183h -6.80315" fill="none" stroke="black"/>
<text xml:space="preserve" x="29.1126" y="312.077" fill="black" font-size="13.0848" font-family="Helvetica">0.92</text>
<text xml:space="preserve" x="29.1126" y="266.164" fill="black" font-size="13.0848" font-family="Helvetica">0.94</text>
<text xml:space="preserve" x="29.1126" y="220.251" fill="black" font-size="13.0848" font-family="Helvetica">0.96</text>
<text xml:space="preserve" x="29.1126" y="174.337" fill="black" font-size="13.0848" font-family="Helvetica">0.98</text>
<text xml:space="preserve" x="49.0749" y="129.089" fill="black" font-size="13.0848" font-family="Helvetica">1</text>
<text xml:space="preserve" x="29.1126" y="83.1762" fill="black" font-size="13.0848" font-family="Helvetica">1.02</text>
<g transform="rotate(-90,17.8007,99.8115)">
<text xml:space="preserve" x="17.8007" y="99.8115" fill="black" font-size="13.0848" font-family="Helvetica"> Evis/Etrue</text>
</g>
<path d="M77.8085,311.905v -7.83619" fill="none" stroke="#0000cc" stroke-width="2"/>
<path d="M77.8085,317.229v 7.83619" fill="none" stroke="#0000cc" stroke-width="2"/>
<path d="M88.035,279.62v -7.99762" fill="none" stroke="#0000cc" stroke-width="2"/>
<path d="M88.035,284.943v 7.99762" fill="none" stroke="#0000cc" stroke-width="2"/>
<path d="M99.0891,256.544v -8.113" fill="none" stroke="#0000cc" stroke-width="2"/>
<path d="M99.0891,261.867v 8.113" fill="none" stroke="#0000cc" stroke-width="2"/>
<path d="M125.04,207.238v -8.35953" fill="none" stroke="#0000cc" stroke-width="2"/>
<path d="M125.04,212.562v 8.35953" fill="none" stroke="#0000cc" stroke-width="2"/>
<path d="M168.724,167.877v -8.55633" fill="none" stroke="#0000cc" stroke-width="2"/>
<path d="M168.724,173.2v 8.55633" fill="none" stroke="#0000cc" stroke-width="2"/>
<path d="M186.458,154.546v -8.62299" fill="none" stroke="#0000cc" stroke-width="2"/>
<path d="M186.458,159.869v 8.62299" fill="none" stroke="#0000cc" stroke-width="2"/>
<path d="M193.197,149.17v -8.64987" fill="none" stroke="#0000cc" stroke-width="2"/>
<path d="M193.197,154.494v 8.64987" fill="none" stroke="#0000cc" stroke-width="2"/>
<path d="M330.989,103.467v -15.8024" fill="none" stroke="#0000cc" stroke-width="2"/>
<path d="M330.989,108.79v 15.8024" fill="none" stroke="#0000cc" stroke-width="2"/>
<path d="M401.038,92.379v -15.8911" fill="none" stroke="#0000cc" stroke-width="2"/>
<path d="M401.038,97.7022v 15.8911" fill="none" stroke="#0000cc" stroke-width="2"/>
<path d="M490.121,83.3762v -29.9317" fill="none" stroke="#0000cc" stroke-width="2"/>
<path d="M490.121,88.6995v 29.9317" fill="none" stroke="#0000cc" stroke-width="2"/>
<g stroke="#0000cc" stroke-width="2" fill="#0000cc">
<circle cx="77.8085" cy="314.567" r="2.9278"/>
<circle cx="88.035" cy="282.282" r="2.9278"/>
<circle cx="99.0891" cy="259.205" r="2.9278"/>
<circle cx="125.04" cy="209.9" r="2.9278"/>
<circle cx="168.724" cy="170.539" r="2.9278"/>
<circle cx="186.458" cy="157.208" r="2.9278"/>
<circle cx="193.197" cy="151.832" r="2.9278"/>
<circle cx="330.989" cy="106.128" r="2.9278"/>
<circle cx="401.038" cy="95.0406" r="2.9278"/>
<circle cx="490.121" cy="86.0378" r="2.9278"/>
</g>
<g stroke="#00cc00" stroke-width="2" fill="#00cc00">
<rect x="74.8807" y="335.554" width="5.85561" height="5.85561"/>
<rect x="85.1072" y="307.44" width="5.85561" height="5.85561"/>
<rect x="96.1613" y="282.124" width="5.85561" height="5.85561"/>
<rect x="122.112" y="239.067" width="5.85561" height="5.85561"/>
<rect x="165.796" y="194.617" width="5.85561" height="5.85561"/>
<rect x="183.53" y="182.328" width="5.85561" height="5.85561"/>
<rect x="190.269" y="177.949" width="5.85561" height="5.85561"/>
<rect x="328.061" y="129.097" width="5.85561" height="5.85561"/>
<rect x="398.11" y="117.284" width="5.85561" height="5.85561"/>
<rect x="487.193" y="106.808" width="5.85561" height="5.85561"/>
</g>
<rect x="265.999" y="218.254" width="170.345" height="58.5561" fill="white"/>
<text xml:space="preserve" x="308.585" y="237.551" fill="black" font-size="12.0989" font-family="Helvetica">Gamma Data</text>
<path d="M287.292,230.232v -6.12177" fill="none" stroke="#0000cc" stroke-width="2"/>
<path d="M287.292,235.555v 6.12177" fill="none" stroke="#0000cc" stroke-width="2"/>
<path d="M284.311,224.11h 5.96207" fill="none" stroke="#0000cc" stroke-width="2"/>
<path d="M284.311,241.677h 5.96207" fill="none" stroke="#0000cc" stroke-width="2"/>
<g stroke="#0000cc" stroke-width="2" fill="#0000cc">
<circle cx="287.292" cy="232.893" r="2.9278"/>
</g>
<text xml:space="preserve" x="308.585" y="266.829" fill="black" font-size="12.0989" font-family="Helvetica">Gamma Fit</text>
<path d="M287.292,259.51v -6.12177" fill="none" stroke="#00cc00" stroke-width="2"/>
<path d="M287.292,264.833v 6.12177" fill="none" stroke="#00cc00" stroke-width="2"/>
<path d="M284.311,253.388h 5.96207" fill="none" stroke="#00cc00" stroke-width="2"/>
<path d="M284.311,270.955h 5.96207" fill="none" stroke="#00cc00" stroke-width="2"/>
<g stroke="#00cc00" stroke-width="2" fill="#00cc00">
<rect x="284.364" y="259.244" width="5.85561" height="5.85561"/>
</g>
<text xml:space="preserve" x="211.435" y="18.6315" fill="black" font-size="18.2587" font-family="Helvetica">Gamma NL Fitting</text></svg>
