<?xml version="1.0" standalone="no"?>
<svg width="567.429" height="386.304" viewBox="0 0 567.429 386.304" xmlns="http://www.w3.org/2000/svg" shape-rendering="crispEdges">
<title>
/Users/yumiao/Documents/Works/github/energyModel_Fit/Miao/Integ_gammaNL.svg
</title>
<desc>
Creator: ROOT Version 6.18/04
CreationDate: Sat Apr 11 17:35:51 2020</desc>
<defs>
</defs>
<rect x="0.5" y="0" width="566.929" height="385.804" fill="white"/>
<rect x="57.1929" y="38.5804" width="453.543" height="308.643" fill="white"/>
<rect x="57.1929" y="38.5804" width="453.543" height="308.643" fill="none" stroke="black"/>
<rect x="57.1929" y="38.5804" width="453.543" height="308.643" fill="white"/>
<rect x="57.1929" y="38.5804" width="453.543" height="308.643" fill="none" stroke="black"/>
<path d="M57.1929,347.224h 453.543" fill="none" stroke="black"/>
<path d="M63.9003,38.5804v 308.643" fill="none" stroke="black" stroke-dasharray=" 1, 2"/>
<path d="M108.766,38.5804v 308.643" fill="none" stroke="black" stroke-dasharray=" 1, 2"/>
<path d="M153.631,38.5804v 308.643" fill="none" stroke="black" stroke-dasharray=" 1, 2"/>
<path d="M198.496,38.5804v 308.643" fill="none" stroke="black" stroke-dasharray=" 1, 2"/>
<path d="M243.361,38.5804v 308.643" fill="none" stroke="black" stroke-dasharray=" 1, 2"/>
<path d="M288.227,38.5804v 308.643" fill="none" stroke="black" stroke-dasharray=" 1, 2"/>
<path d="M333.092,38.5804v 308.643" fill="none" stroke="black" stroke-dasharray=" 1, 2"/>
<path d="M377.957,38.5804v 308.643" fill="none" stroke="black" stroke-dasharray=" 1, 2"/>
<path d="M422.823,38.5804v 308.643" fill="none" stroke="black" stroke-dasharray=" 1, 2"/>
<path d="M467.688,38.5804v 308.643" fill="none" stroke="black" stroke-dasharray=" 1, 2"/>
<path d="M63.9003,38.5804v 308.643" fill="none" stroke="black" stroke-dasharray=" 1, 2"/>
<path d="M467.688,38.5804v 308.643" fill="none" stroke="black" stroke-dasharray=" 1, 2"/>
<path d="M57.1929,347.224v -308.643" fill="none" stroke="black"/>
<path d="M510.736,325.997h -453.543" fill="none" stroke="black" stroke-dasharray=" 1, 2"/>
<path d="M510.736,294.021h -453.543" fill="none" stroke="black" stroke-dasharray=" 1, 2"/>
<path d="M510.736,262.044h -453.543" fill="none" stroke="black" stroke-dasharray=" 1, 2"/>
<path d="M510.736,230.068h -453.543" fill="none" stroke="black" stroke-dasharray=" 1, 2"/>
<path d="M510.736,198.091h -453.543" fill="none" stroke="black" stroke-dasharray=" 1, 2"/>
<path d="M510.736,166.115h -453.543" fill="none" stroke="black" stroke-dasharray=" 1, 2"/>
<path d="M510.736,134.138h -453.543" fill="none" stroke="black" stroke-dasharray=" 1, 2"/>
<path d="M510.736,102.162h -453.543" fill="none" stroke="black" stroke-dasharray=" 1, 2"/>
<path d="M510.736,70.1852h -453.543" fill="none" stroke="black" stroke-dasharray=" 1, 2"/>
<path d="M510.736,325.997h -453.543" fill="none" stroke="black" stroke-dasharray=" 1, 2"/>
<path d="M510.736,70.1852h -453.543" fill="none" stroke="black" stroke-dasharray=" 1, 2"/>
<path d="M57.1929,347.224h 453.543" fill="none" stroke="black"/>
<path d="M63.9003,337.964v 9.2593" fill="none" stroke="black"/>
<path d="M75.1166,342.594v 4.62965" fill="none" stroke="black"/>
<path d="M86.3329,342.594v 4.62965" fill="none" stroke="black"/>
<path d="M97.5493,342.594v 4.62965" fill="none" stroke="black"/>
<path d="M108.766,337.964v 9.2593" fill="none" stroke="black"/>
<path d="M119.982,342.594v 4.62965" fill="none" stroke="black"/>
<path d="M131.198,342.594v 4.62965" fill="none" stroke="black"/>
<path d="M142.415,342.594v 4.62965" fill="none" stroke="black"/>
<path d="M153.631,337.964v 9.2593" fill="none" stroke="black"/>
<path d="M164.847,342.594v 4.62965" fill="none" stroke="black"/>
<path d="M176.064,342.594v 4.62965" fill="none" stroke="black"/>
<path d="M187.28,342.594v 4.62965" fill="none" stroke="black"/>
<path d="M198.496,337.964v 9.2593" fill="none" stroke="black"/>
<path d="M209.712,342.594v 4.62965" fill="none" stroke="black"/>
<path d="M220.929,342.594v 4.62965" fill="none" stroke="black"/>
<path d="M232.145,342.594v 4.62965" fill="none" stroke="black"/>
<path d="M243.361,337.964v 9.2593" fill="none" stroke="black"/>
<path d="M254.578,342.594v 4.62965" fill="none" stroke="black"/>
<path d="M265.794,342.594v 4.62965" fill="none" stroke="black"/>
<path d="M277.01,342.594v 4.62965" fill="none" stroke="black"/>
<path d="M288.227,337.964v 9.2593" fill="none" stroke="black"/>
<path d="M299.443,342.594v 4.62965" fill="none" stroke="black"/>
<path d="M310.659,342.594v 4.62965" fill="none" stroke="black"/>
<path d="M321.876,342.594v 4.62965" fill="none" stroke="black"/>
<path d="M333.092,337.964v 9.2593" fill="none" stroke="black"/>
<path d="M344.308,342.594v 4.62965" fill="none" stroke="black"/>
<path d="M355.525,342.594v 4.62965" fill="none" stroke="black"/>
<path d="M366.741,342.594v 4.62965" fill="none" stroke="black"/>
<path d="M377.957,337.964v 9.2593" fill="none" stroke="black"/>
<path d="M389.174,342.594v 4.62965" fill="none" stroke="black"/>
<path d="M400.39,342.594v 4.62965" fill="none" stroke="black"/>
<path d="M411.606,342.594v 4.62965" fill="none" stroke="black"/>
<path d="M422.823,337.964v 9.2593" fill="none" stroke="black"/>
<path d="M434.039,342.594v 4.62965" fill="none" stroke="black"/>
<path d="M445.255,342.594v 4.62965" fill="none" stroke="black"/>
<path d="M456.472,342.594v 4.62965" fill="none" stroke="black"/>
<path d="M467.688,337.964v 9.2593" fill="none" stroke="black"/>
<path d="M63.9003,337.964v 9.2593" fill="none" stroke="black"/>
<path d="M467.688,337.964v 9.2593" fill="none" stroke="black"/>
<path d="M478.904,342.594v 4.62965" fill="none" stroke="black"/>
<path d="M490.121,342.594v 4.62965" fill="none" stroke="black"/>
<path d="M501.337,342.594v 4.62965" fill="none" stroke="black"/>
<text xml:space="preserve" x="54.9187" y="359.813" fill="black" font-size="12.8882" font-family="Helvetica">0.6</text>
<text xml:space="preserve" x="99.5908" y="359.813" fill="black" font-size="12.8882" font-family="Helvetica">0.8</text>
<text xml:space="preserve" x="150.761" y="359.813" fill="black" font-size="12.8882" font-family="Helvetica">1</text>
<text xml:space="preserve" x="188.935" y="359.813" fill="black" font-size="12.8882" font-family="Helvetica">1.2</text>
<text xml:space="preserve" x="234.419" y="359.813" fill="black" font-size="12.8882" font-family="Helvetica">1.4</text>
<text xml:space="preserve" x="279.091" y="359.813" fill="black" font-size="12.8882" font-family="Helvetica">1.6</text>
<text xml:space="preserve" x="323.763" y="359.813" fill="black" font-size="12.8882" font-family="Helvetica">1.8</text>
<text xml:space="preserve" x="373.309" y="359.813" fill="black" font-size="12.8882" font-family="Helvetica">2</text>
<text xml:space="preserve" x="413.107" y="359.813" fill="black" font-size="12.8882" font-family="Helvetica">2.2</text>
<text xml:space="preserve" x="458.592" y="359.813" fill="black" font-size="12.8882" font-family="Helvetica">2.4</text>
<text xml:space="preserve" x="445.596" y="373.621" fill="black" font-size="12.8882" font-family="Helvetica"> Etrue/MeV</text>
<path d="M57.1929,347.224v -308.643" fill="none" stroke="black"/>
<path d="M70.7992,325.997h -13.6063" fill="none" stroke="black"/>
<path d="M63.9961,319.602h -6.80315" fill="none" stroke="black"/>
<path d="M63.9961,313.207h -6.80315" fill="none" stroke="black"/>
<path d="M63.9961,306.811h -6.80315" fill="none" stroke="black"/>
<path d="M63.9961,300.416h -6.80315" fill="none" stroke="black"/>
<path d="M70.7992,294.021h -13.6063" fill="none" stroke="black"/>
<path d="M63.9961,287.626h -6.80315" fill="none" stroke="black"/>
<path d="M63.9961,281.23h -6.80315" fill="none" stroke="black"/>
<path d="M63.9961,274.835h -6.80315" fill="none" stroke="black"/>
<path d="M63.9961,268.44h -6.80315" fill="none" stroke="black"/>
<path d="M70.7992,262.044h -13.6063" fill="none" stroke="black"/>
<path d="M63.9961,255.649h -6.80315" fill="none" stroke="black"/>
<path d="M63.9961,249.254h -6.80315" fill="none" stroke="black"/>
<path d="M63.9961,242.858h -6.80315" fill="none" stroke="black"/>
<path d="M63.9961,236.463h -6.80315" fill="none" stroke="black"/>
<path d="M70.7992,230.068h -13.6063" fill="none" stroke="black"/>
<path d="M63.9961,223.673h -6.80315" fill="none" stroke="black"/>
<path d="M63.9961,217.277h -6.80315" fill="none" stroke="black"/>
<path d="M63.9961,210.882h -6.80315" fill="none" stroke="black"/>
<path d="M63.9961,204.487h -6.80315" fill="none" stroke="black"/>
<path d="M70.7992,198.091h -13.6063" fill="none" stroke="black"/>
<path d="M63.9961,191.696h -6.80315" fill="none" stroke="black"/>
<path d="M63.9961,185.301h -6.80315" fill="none" stroke="black"/>
<path d="M63.9961,178.905h -6.80315" fill="none" stroke="black"/>
<path d="M63.9961,172.51h -6.80315" fill="none" stroke="black"/>
<path d="M70.7992,166.115h -13.6063" fill="none" stroke="black"/>
<path d="M63.9961,159.719h -6.80315" fill="none" stroke="black"/>
<path d="M63.9961,153.324h -6.80315" fill="none" stroke="black"/>
<path d="M63.9961,146.929h -6.80315" fill="none" stroke="black"/>
<path d="M63.9961,140.534h -6.80315" fill="none" stroke="black"/>
<path d="M70.7992,134.138h -13.6063" fill="none" stroke="black"/>
<path d="M63.9961,127.743h -6.80315" fill="none" stroke="black"/>
<path d="M63.9961,121.348h -6.80315" fill="none" stroke="black"/>
<path d="M63.9961,114.952h -6.80315" fill="none" stroke="black"/>
<path d="M63.9961,108.557h -6.80315" fill="none" stroke="black"/>
<path d="M70.7992,102.162h -13.6063" fill="none" stroke="black"/>
<path d="M63.9961,95.7665h -6.80315" fill="none" stroke="black"/>
<path d="M63.9961,89.3712h -6.80315" fill="none" stroke="black"/>
<path d="M63.9961,82.9759h -6.80315" fill="none" stroke="black"/>
<path d="M63.9961,76.5805h -6.80315" fill="none" stroke="black"/>
<path d="M70.7992,70.1852h -13.6063" fill="none" stroke="black"/>
<path d="M70.7992,325.997h -13.6063" fill="none" stroke="black"/>
<path d="M63.9961,332.393h -6.80315" fill="none" stroke="black"/>
<path d="M63.9961,338.788h -6.80315" fill="none" stroke="black"/>
<path d="M63.9961,345.183h -6.80315" fill="none" stroke="black"/>
<path d="M70.7992,70.1852h -13.6063" fill="none" stroke="black"/>
<path d="M63.9961,63.7899h -6.80315" fill="none" stroke="black"/>
<path d="M63.9961,57.3946h -6.80315" fill="none" stroke="black"/>
<path d="M63.9961,50.9993h -6.80315" fill="none" stroke="black"/>
<path d="M63.9961,44.604h -6.80315" fill="none" stroke="black"/>
<text xml:space="preserve" x="31.3643" y="330.573" fill="black" font-size="12.8882" font-family="Helvetica">0.91</text>
<text xml:space="preserve" x="28.9277" y="298.085" fill="black" font-size="12.8882" font-family="Helvetica">0.92</text>
<text xml:space="preserve" x="28.9277" y="266.408" fill="black" font-size="12.8882" font-family="Helvetica">0.93</text>
<text xml:space="preserve" x="28.9277" y="234.731" fill="black" font-size="12.8882" font-family="Helvetica">0.94</text>
<text xml:space="preserve" x="28.9277" y="202.243" fill="black" font-size="12.8882" font-family="Helvetica">0.95</text>
<text xml:space="preserve" x="28.9277" y="170.566" fill="black" font-size="12.8882" font-family="Helvetica">0.96</text>
<text xml:space="preserve" x="28.9277" y="138.89" fill="black" font-size="12.8882" font-family="Helvetica">0.97</text>
<text xml:space="preserve" x="28.9277" y="106.401" fill="black" font-size="12.8882" font-family="Helvetica">0.98</text>
<text xml:space="preserve" x="28.9277" y="74.7242" fill="black" font-size="12.8882" font-family="Helvetica">0.99</text>
<g transform="rotate(-90,18.3688,100.715)">
<text xml:space="preserve" x="18.3688" y="100.715" fill="black" font-size="12.8882" font-family="Helvetica"> Evis/Etrue</text>
</g>
<path d="M77.8085,300.626v -26.071" fill="none" stroke="#0000cc"/>
<path d="M77.8085,307.124v 26.071" fill="none" stroke="#0000cc"/>
<path d="M116.617,255.54v -26.5218" fill="none" stroke="#0000cc"/>
<path d="M116.617,262.038v 26.5218" fill="none" stroke="#0000cc"/>
<path d="M158.566,223.315v -26.8441" fill="none" stroke="#0000cc"/>
<path d="M158.566,229.812v 26.8441" fill="none" stroke="#0000cc"/>
<path d="M257.045,154.461v -27.5326" fill="none" stroke="#0000cc"/>
<path d="M257.045,160.959v 27.5326" fill="none" stroke="#0000cc"/>
<path d="M422.823,99.4943v -28.0823" fill="none" stroke="#0000cc"/>
<path d="M422.823,105.992v 28.0823" fill="none" stroke="#0000cc"/>
<path d="M490.121,80.8781v -28.2685" fill="none" stroke="#0000cc"/>
<path d="M490.121,87.3759v 28.2685" fill="none" stroke="#0000cc"/>
<g stroke="#0000cc" stroke-width="1" fill="#0000cc">
<circle cx="77.8085" cy="303.875" r="3.57377"/>
<circle cx="116.617" cy="258.789" r="3.57377"/>
<circle cx="158.566" cy="226.564" r="3.57377"/>
<circle cx="257.045" cy="157.71" r="3.57377"/>
<circle cx="422.823" cy="102.743" r="3.57377"/>
<circle cx="490.121" cy="84.127" r="3.57377"/>
</g>
<g stroke="#00cc00" stroke-width="1" fill="#00cc00">
<rect x="74.2348" y="299.88" width="7.14753" height="7.14753"/>
<rect x="113.043" y="256.913" width="7.14753" height="7.14753"/>
<rect x="154.992" y="219.505" width="7.14753" height="7.14753"/>
<rect x="253.472" y="158.182" width="7.14753" height="7.14753"/>
<rect x="419.249" y="97.2501" width="7.14753" height="7.14753"/>
<rect x="486.547" y="80.7087" width="7.14753" height="7.14753"/>
</g>
<rect x="299.397" y="213.614" width="170.566" height="57.6676" fill="white"/>
<text xml:space="preserve" x="341.632" y="233.919" fill="black" font-size="14.658" font-family="Helvetica">Gamma Data</text>
<path d="M320.717,224.782v -5.40126" fill="none" stroke="#0000cc"/>
<path d="M320.717,231.279v 5.40126" fill="none" stroke="#0000cc"/>
<path d="M317.733,219.38h 5.96981" fill="none" stroke="#0000cc"/>
<path d="M317.733,236.681h 5.96981" fill="none" stroke="#0000cc"/>
<g stroke="#0000cc" stroke-width="1" fill="#0000cc">
<circle cx="320.717" cy="228.031" r="3.57377"/>
</g>
<text xml:space="preserve" x="341.632" y="263.159" fill="black" font-size="14.658" font-family="Helvetica">Gamma Fit</text>
<path d="M320.717,253.616v -5.40126" fill="none" stroke="#00cc00"/>
<path d="M320.717,260.113v 5.40126" fill="none" stroke="#00cc00"/>
<path d="M317.733,248.214h 5.96981" fill="none" stroke="#00cc00"/>
<path d="M317.733,265.515h 5.96981" fill="none" stroke="#00cc00"/>
<g stroke="#00cc00" stroke-width="1" fill="#00cc00">
<rect x="317.144" y="253.291" width="7.14753" height="7.14753"/>
</g>
<text xml:space="preserve" x="211.677" y="18.681" fill="black" font-size="17.9813" font-family="Helvetica">Gamma NL Fitting</text></svg>
